<svg xmlns="http://www.w3.org/2000/svg" viewBox="0 0 64 64" width="64" height="64">
  <!-- Background circle -->
  <circle cx="32" cy="32" r="30" fill="#00ffff" opacity="0.2"/>
  
  <!-- Brain shape -->
  <path d="M 28 18 Q 24 16 20 18 Q 16 20 16 24 Q 16 28 18 30 Q 16 32 18 36 Q 20 40 24 40 Q 22 44 24 48 Q 26 50 28 48 Q 28 52 32 52 Q 36 52 36 48 Q 38 50 40 48 Q 42 44 40 40 Q 44 40 46 36 Q 48 32 46 30 Q 48 28 48 24 Q 48 20 44 18 Q 40 16 36 18 Z" 
        fill="#00ffff" 
        stroke="#00ffa5" 
        stroke-width="1.5"/>
  
  <!-- Neural network nodes -->
  <circle cx="24" cy="28" r="2" fill="#00ffa5"/>
  <circle cx="32" cy="26" r="2" fill="#00ffa5"/>
  <circle cx="40" cy="28" r="2" fill="#00ffa5"/>
  <circle cx="26" cy="36" r="2" fill="#00ffa5"/>
  <circle cx="32" cy="38" r="2" fill="#00ffa5"/>
  <circle cx="38" cy="36" r="2" fill="#00ffa5"/>
  
  <!-- Connection lines -->
  <line x1="24" y1="28" x2="32" y2="26" stroke="#00ffa5" stroke-width="1" opacity="0.6"/>
  <line x1="32" y1="26" x2="40" y2="28" stroke="#00ffa5" stroke-width="1" opacity="0.6"/>
  <line x1="24" y1="28" x2="26" y2="36" stroke="#00ffa5" stroke-width="1" opacity="0.6"/>
  <line x1="32" y1="26" x2="32" y2="38" stroke="#00ffa5" stroke-width="1" opacity="0.6"/>
  <line x1="40" y1="28" x2="38" y2="36" stroke="#00ffa5" stroke-width="1" opacity="0.6"/>
  <line x1="26" y1="36" x2="32" y2="38" stroke="#00ffa5" stroke-width="1" opacity="0.6"/>
  <line x1="32" y1="38" x2="38" y2="36" stroke="#00ffa5" stroke-width="1" opacity="0.6"/>
</svg>










